<svg enable-background="new 0 0 48 48" height="48" viewBox="0 0 48 48" width="48" xmlns="http://www.w3.org/2000/svg"><g fill="#1a237e"><path d="m34 5.718c-4.077-.123-7.854 2.545-8.955 6.656l-2.976 11.108-2.976 11.108c-.621 2.319-2.785 3.818-5.092 3.696v3.995c4.077.123 7.854-2.545 8.955-6.656l2.976-11.108 2.976-11.108c.622-2.318 2.785-3.818 5.092-3.695z"/><path d="m16 22h16v4h-16z"/><path d="m38.951 13.976c-.614-.916-1.859-1.162-2.775-.547-.916.614-1.162 1.859-.547 2.775 1.605 2.394 2.37 5.11 2.366 7.796h.005c0 7.588-5.288 13.928-12.376 15.572-.484.871-1.053 1.684-1.712 2.414 3.479.026 7.001-.95 10.112-3.035 8.257-5.536 10.463-16.718 4.927-24.975z"/><path d="m10.006 24h-.006c0-7.588 5.288-13.928 12.376-15.572.484-.871 1.053-1.685 1.712-2.414-3.479-.026-7.001.95-10.112 3.035-8.257 5.536-10.463 16.718-4.927 24.975.614.916 1.859 1.162 2.775.547.916-.614 1.162-1.859.547-2.775-1.605-2.394-2.369-5.109-2.365-7.796z"/></g></svg>