<svg height="48" viewBox="0 0 48 48" width="48" xmlns="http://www.w3.org/2000/svg"><g fill="#fff"><path d="m18 20v8h-12v-8zm-14 0v8a2 2 0 0 0 2 2h12a2 2 0 0 0 2-2v-8a2 2 0 0 0 -2-2h-12a2 2 0 0 0 -2 2z"/><path d="m42 10v8h-12v-8zm-14 0v8a2 2 0 0 0 2 2h12a2 2 0 0 0 2-2v-8a2 2 0 0 0 -2-2h-12a2 2 0 0 0 -2 2z"/><path d="m42 30v8h-12v-8zm-14 0v8a2 2 0 0 0 2 2h12a2 2 0 0 0 2-2v-8a2 2 0 0 0 -2-2h-12a2 2 0 0 0 -2 2z"/><path d="m6 20h4v8h-4z" opacity=".5"/><path d="m30 10h4v8h-4z" opacity=".5"/><path d="m30 30h4v8h-4z" opacity=".5"/><path d="m25 20v-2a3 3 0 0 1 3-3v-2a5 5 0 0 0 -5 5v2a3 3 0 0 1 -3 3v2a3 3 0 0 1 3 3v2a5 5 0 0 0 5 5v-2a3 3 0 0 1 -3-3v-2a5 5 0 0 0 -2-4 5 5 0 0 0 2-4z"/></g></svg>