<svg height="48" viewBox="0 0 48 48" width="48" xmlns="http://www.w3.org/2000/svg"><rect fill="#455a64" height="12" rx="2" width="16" x="4" y="18"/><rect fill="#455a64" height="12" rx="2" width="16" x="28" y="8"/><path d="m18 20v8h-12v-8z" fill="#fff"/><rect fill="#455a64" height="12" rx="2" width="16" x="28" y="28"/><path d="m42 10v8h-12v-8z" fill="#fff"/><path d="m42 30v8h-12v-8z" fill="#fff"/><path d="m6 20h4v8h-4z" fill="#f57c00"/><path d="m30 10h4v8h-4z" fill="#1976d2"/><path d="m30 30h4v8h-4z" fill="#78909c"/><path d="m25 20v-2a3 3 0 0 1 3-3v-2a5 5 0 0 0 -5 5v2a3 3 0 0 1 -3 3v2a3 3 0 0 1 3 3v2a5 5 0 0 0 5 5v-2a3 3 0 0 1 -3-3v-2a5 5 0 0 0 -2-4 5 5 0 0 0 2-4z" fill="#455a64"/></svg>