<svg enable-background="new 0 0 48 48" height="48" viewBox="0 0 48 48" width="48" xmlns="http://www.w3.org/2000/svg"><path d="m38.946 22.38-.348-1.97-14.203 2.505-9.271-11.048-1.532 1.285 9.271 11.049-4.933 13.552 1.879.684 4.933-13.552z" fill="#ffa726"/><path d="m34.408 34.848-9.271-11.049 4.933-13.552-1.879-.684-4.933 13.552-14.204 2.505.348 1.97 14.203-2.505 9.271 11.048z" fill="#f57c00"/><path d="m24 16c-4.418 0-8 3.582-8 8s3.582 8 8 8 8-3.582 8-8-3.582-8-8-8z" fill="#e65100"/><path d="m24 19c2.761 0 5 2.239 5 5s-2.239 5-5 5-5-2.239-5-5 2.239-5 5-5" fill="#ffcc80"/><path d="m36.856 39.321c1.692-1.42 1.913-3.943.493-5.635s-3.943-1.913-5.635-.493-1.913 3.943-.493 5.635c1.419 1.692 3.942 1.913 5.635.493z" fill="#0d47a1"/><path d="m35.57 37.789c-.846.71-2.108.6-2.818-.247s-.6-2.108.247-2.818c.846-.71 2.108-.6 2.818.247s.599 2.108-.247 2.818" fill="#42a5f5"/><path d="m4.304 27.473c.384 2.176 2.458 3.628 4.634 3.245 2.176-.384 3.628-2.458 3.245-4.634s-2.458-3.628-4.634-3.245c-2.176.384-3.629 2.458-3.245 4.634z" fill="#0d47a1"/><path d="m6.273 27.126c-.192-1.088.535-2.125 1.622-2.317s2.125.535 2.317 1.622c.192 1.088-.535 2.125-1.622 2.317s-2.125-.535-2.317-1.622" fill="#42a5f5"/><path d="m30.84 5.206c-2.076-.756-4.371.315-5.127 2.391s.315 4.371 2.391 5.127 4.371-.315 5.127-2.391-.315-4.371-2.391-5.127z" fill="#0d47a1"/><path d="m30.156 7.086c1.038.378 1.573 1.525 1.195 2.563s-1.525 1.573-2.563 1.195-1.573-1.525-1.195-2.563 1.525-1.573 2.563-1.195" fill="#42a5f5"/><path d="m12.43 10.211c-1.269 1.065-1.435 2.957-.37 4.226s2.957 1.435 4.226.37 1.435-2.957.37-4.226-2.957-1.435-4.226-.37z" fill="#1976d2"/><path d="m13.073 10.977c.846-.71 2.108-.6 2.818.247.71.846.6 2.108-.247 2.818-.846.71-2.108.6-2.818-.247s-.6-2.108.247-2.818" fill="#42a5f5"/><path d="m41.727 20.874c-.288-1.632-1.844-2.721-3.475-2.433-1.632.288-2.721 1.844-2.433 3.475.288 1.632 1.844 2.721 3.475 2.433s2.72-1.843 2.433-3.475z" fill="#1976d2"/><path d="m40.742 21.048c.192 1.088-.535 2.125-1.622 2.317-1.088.192-2.125-.535-2.317-1.622s.535-2.125 1.622-2.317 2.125.534 2.317 1.622" fill="#42a5f5"/><path d="m17.844 40.914c1.557.567 3.278-.236 3.845-1.793s-.236-3.278-1.793-3.845-3.278.236-3.845 1.793.236 3.279 1.793 3.845z" fill="#1976d2"/><path d="m18.186 39.975c-1.038-.378-1.573-1.525-1.195-2.563s1.525-1.573 2.563-1.195 1.573 1.525 1.195 2.563-1.525 1.573-2.563 1.195" fill="#42a5f5"/></svg>