<svg enable-background="new 0 0 48 48" height="48" viewBox="0 0 48 48" width="48" xmlns="http://www.w3.org/2000/svg"><g fill="#1976d2"><path d="m20 4h8v8h-8z"/><path d="m20 36h8v8h-8z"/><path d="m4 20h8v8h-8z"/><path d="m36 20h8v8h-8z"/><path d="m30 12h2c2.206 0 4 1.794 4 4v2h4v-2c0-4.418-3.582-8-8-8h-2z"/><path d="m12 18v-2c0-2.206 1.794-4 4-4h2v-4h-2c-4.418 0-8 3.582-8 8v2z"/><path d="m36 30v2c0 2.206-1.794 4-4 4h-2v4h2c4.418 0 8-3.582 8-8v-2z"/><path d="m18 36h-2c-2.206 0-4-1.794-4-4v-2h-4v2c0 4.418 3.582 8 8 8h2z"/><path d="m16 16h16v16h-16z"/></g></svg>